<svg width="381" height="250" viewBox="0 0 381 250" fill="none" xmlns="http://www.w3.org/2000/svg">
<g filter="url(#filter0_iiii_501_188)">
<path d="M146.893 234.472C181.338 226.469 170.997 177.578 201.266 162.402C240.868 142.545 303.389 165.88 336.417 139.447C369.939 112.618 373.976 67.892 367.231 29.5733C359.936 -11.871 338.581 -54.52 297.607 -81.0383C257.115 -107.245 201.468 -113.907 150.459 -110.722C105.26 -107.901 72.1988 -79.9136 31.591 -64.4303C-7.66714 -49.4617 -60.1614 -50.1808 -84.2782 -21.2199C-108.436 7.7907 -104.644 48.5779 -90.7047 82.4296C-78.3762 112.37 -41.5075 129.705 -13.0725 151.705C8.65463 168.515 30.8894 182.998 56.2157 196.102C85.5674 211.288 114.034 242.106 146.893 234.472Z" fill="#2AB1AD"/>
</g>
<defs>
<filter id="filter0_iiii_501_188" x="-114" y="-129" width="494.355" height="394.829" filterUnits="userSpaceOnUse" color-interpolation-filters="sRGB">
<feFlood flood-opacity="0" result="BackgroundImageFix"/>
<feBlend mode="normal" in="SourceGraphic" in2="BackgroundImageFix" result="shape"/>
<feColorMatrix in="SourceAlpha" type="matrix" values="0 0 0 0 0 0 0 0 0 0 0 0 0 0 0 0 0 0 127 0" result="hardAlpha"/>
<feOffset dy="16"/>
<feGaussianBlur stdDeviation="16"/>
<feComposite in2="hardAlpha" operator="arithmetic" k2="-1" k3="1"/>
<feColorMatrix type="matrix" values="0 0 0 0 0 0 0 0 0 0 0 0 0 0 0 0 0 0 0.16 0"/>
<feBlend mode="normal" in2="shape" result="effect1_innerShadow_501_188"/>
<feColorMatrix in="SourceAlpha" type="matrix" values="0 0 0 0 0 0 0 0 0 0 0 0 0 0 0 0 0 0 127 0" result="hardAlpha"/>
<feOffset dy="8"/>
<feGaussianBlur stdDeviation="8"/>
<feComposite in2="hardAlpha" operator="arithmetic" k2="-1" k3="1"/>
<feColorMatrix type="matrix" values="0 0 0 0 0 0 0 0 0 0 0 0 0 0 0 0 0 0 0.12 0"/>
<feBlend mode="normal" in2="effect1_innerShadow_501_188" result="effect2_innerShadow_501_188"/>
<feColorMatrix in="SourceAlpha" type="matrix" values="0 0 0 0 0 0 0 0 0 0 0 0 0 0 0 0 0 0 127 0" result="hardAlpha"/>
<feOffset dy="4"/>
<feGaussianBlur stdDeviation="4"/>
<feComposite in2="hardAlpha" operator="arithmetic" k2="-1" k3="1"/>
<feColorMatrix type="matrix" values="0 0 0 0 0 0 0 0 0 0 0 0 0 0 0 0 0 0 0.12 0"/>
<feBlend mode="normal" in2="effect2_innerShadow_501_188" result="effect3_innerShadow_501_188"/>
<feColorMatrix in="SourceAlpha" type="matrix" values="0 0 0 0 0 0 0 0 0 0 0 0 0 0 0 0 0 0 127 0" result="hardAlpha"/>
<feOffset dy="2"/>
<feGaussianBlur stdDeviation="2"/>
<feComposite in2="hardAlpha" operator="arithmetic" k2="-1" k3="1"/>
<feColorMatrix type="matrix" values="0 0 0 0 0 0 0 0 0 0 0 0 0 0 0 0 0 0 0.12 0"/>
<feBlend mode="normal" in2="effect3_innerShadow_501_188" result="effect4_innerShadow_501_188"/>
</filter>
</defs>
</svg>
